<?xml version="1.0" standalone="no"?>
<!DOCTYPE svg PUBLIC "-//W3C//DTD SVG 20010904//EN"
 "http://www.w3.org/TR/2001/REC-SVG-20010904/DTD/svg10.dtd">
<svg version="1.0" xmlns="http://www.w3.org/2000/svg"
 width="600.000000pt" height="600.000000pt" viewBox="0 0 600.000000 600.000000"
 preserveAspectRatio="xMidYMid meet">
<g transform="translate(0.000000,600.000000) scale(0.100000,-0.100000)"
fill="#000000" stroke="none">
<path d="M4690 5338 c-514 -41 -771 -124 -1029 -332 -214 -173 -351 -483 -351
-796 0 -72 3 -90 19 -104 26 -24 43 -13 107 67 87 109 297 313 404 393 98 73
162 114 175 114 4 0 -84 -93 -196 -208 -193 -196 -338 -364 -414 -478 -34 -51
-59 -104 -50 -104 3 0 37 44 77 98 142 192 264 329 478 537 165 161 342 307
386 318 16 4 16 5 -4 6 -28 1 -235 -105 -352 -181 -179 -115 -405 -323 -528
-486 -35 -45 -66 -81 -70 -78 -4 2 -4 69 -1 148 16 381 178 656 499 848 139
83 376 156 600 185 174 23 434 44 441 36 15 -15 -54 -431 -91 -556 -75 -246
-175 -420 -329 -568 -136 -130 -248 -197 -431 -257 -131 -43 -222 -54 -454
-52 -124 1 -205 -3 -200 -8 13 -13 155 -19 177 -8 20 10 21 5 6 -24 -11 -20
-10 -20 12 -4 18 12 47 16 119 16 231 0 435 62 641 195 202 130 381 381 468
655 37 115 74 300 97 473 23 182 33 174 -206 155z"/>
<path d="M2865 4751 c-14 -7 14 -10 90 -10 61 -1 142 -3 180 -5 69 -5 69 -5
15 4 -90 14 -264 21 -285 11z"/>
<path d="M2640 4730 c-16 -6 -1 -7 40 -3 36 3 67 7 69 9 8 8 -84 2 -109 -6z"/>
<path d="M2490 4698 c-41 -12 -70 -23 -65 -24 6 -2 51 7 100 21 50 13 79 24
65 24 -14 0 -59 -10 -100 -21z"/>
<path d="M2310 4637 c-53 -22 -130 -63 -100 -53 23 7 164 68 169 72 11 10 -19
1 -69 -19z"/>
<path d="M2100 4535 c-85 -45 -238 -153 -275 -195 -11 -12 30 15 91 61 62 46
148 103 193 127 45 24 81 45 81 48 0 6 2 7 -90 -41z"/>
<path d="M2680 4375 c-42 -8 -87 -19 -100 -25 -24 -10 -24 -10 5 -5 17 3 68
12 114 20 46 8 86 17 89 20 8 8 -25 5 -108 -10z"/>
<path d="M2445 4304 c-27 -13 -39 -21 -25 -18 29 7 100 43 85 43 -5 0 -32 -11
-60 -25z"/>
<path d="M1729 4253 c-73 -79 -81 -95 -16 -33 37 35 67 66 67 67 0 12 -21 -3
-51 -34z"/>
<path d="M1561 4050 c-23 -33 -40 -60 -38 -60 3 0 20 21 39 48 41 57 50 72 45
72 -2 0 -23 -27 -46 -60z"/>
<path d="M4231 3849 c-35 -16 -84 -34 -107 -40 -24 -6 -48 -17 -54 -24 -7 -8
6 -7 42 5 65 21 188 77 188 84 0 7 6 10 -69 -25z"/>
<path d="M2013 3793 c-7 -2 -13 -10 -13 -16 0 -7 3 -7 9 -1 10 9 231 2 286
-11 22 -4 26 -4 14 4 -8 5 -69 15 -135 20 -129 12 -143 12 -161 4z"/>
<path d="M2020 3752 c0 -5 28 -7 63 -5 95 6 100 11 15 12 -43 0 -78 -3 -78 -7z"/>
<path d="M3222 3688 c-14 -19 -54 -99 -50 -103 2 -2 17 23 34 56 31 59 35 70
16 47z"/>
<path d="M2680 3634 c58 -33 156 -129 181 -177 11 -22 23 -36 26 -33 9 9 -56
103 -99 141 -45 41 -126 95 -142 95 -6 0 9 -12 34 -26z"/>
<path d="M2416 3461 c15 -14 104 -51 104 -43 0 4 -22 17 -49 30 -51 23 -72 28
-55 13z"/>
<path d="M2416 3421 c-4 -5 3 -12 14 -16 11 -3 34 -18 50 -32 17 -13 30 -21
30 -17 0 4 -8 13 -17 21 -56 43 -72 52 -77 44z"/>
<path d="M2512 3388 c54 -47 107 -88 114 -88 4 0 -1 6 -12 14 -10 8 -19 20
-19 28 0 7 -25 26 -55 41 -50 26 -53 26 -28 5z"/>
<path d="M4046 3258 c15 -25 69 -80 89 -90 11 -6 -5 15 -35 46 -54 56 -68 67
-54 44z"/>
<path d="M3900 3187 c-29 -25 -66 -67 -59 -67 3 0 25 20 49 45 47 48 52 60 10
22z"/>
<path d="M2750 3178 c0 -5 15 -25 34 -45 47 -53 105 -139 137 -201 24 -49 27
-51 31 -28 3 15 2 26 -3 26 -4 0 -35 40 -68 88 -61 90 -130 173 -131 160z"/>
<path d="M1263 3060 c0 -41 2 -58 4 -37 2 20 2 54 0 75 -2 20 -4 3 -4 -38z"/>
<path d="M3481 2955 c31 -33 65 -70 76 -83 18 -20 22 -21 33 -7 10 12 9 15 -6
15 -10 0 -50 30 -89 68 l-70 67 56 -60z"/>
<path d="M3320 2955 c-13 -14 -21 -27 -18 -30 2 -3 17 9 33 25 16 17 24 30 19
30 -6 0 -21 -11 -34 -25z"/>
<path d="M1634 2763 c2 -10 10 -37 17 -61 7 -23 14 -40 16 -38 5 5 -27 116
-33 116 -3 0 -3 -8 0 -17z"/>
<path d="M1725 2520 c8 -27 54 -110 61 -110 5 0 -55 121 -63 130 -3 3 -2 -6 2
-20z"/>
<path d="M3949 2233 c-13 -16 -33 -39 -44 -53 -17 -21 -17 -22 -2 -11 19 15
82 91 75 91 -2 0 -15 -12 -29 -27z"/>
<path d="M3775 2054 c-43 -40 -44 -42 -9 -15 37 27 72 61 63 61 -2 0 -26 -21
-54 -46z"/>
<path d="M4165 1939 c-22 -22 -32 -37 -23 -34 15 6 75 75 66 75 -2 0 -22 -18
-43 -41z"/>
<path d="M2396 1861 c63 -29 96 -34 39 -7 -27 14 -57 25 -65 25 -8 0 3 -8 26
-18z"/>
<path d="M3035 1790 c0 -31 4 -40 17 -40 16 0 16 3 1 38 -8 20 -16 38 -17 39
-1 1 -2 -16 -1 -37z"/>
<path d="M3650 1560 c-59 -31 -62 -39 -4 -15 37 15 85 46 69 44 -6 -1 -35 -14
-65 -29z"/>
<path d="M2055 1474 c-33 -12 -53 -23 -45 -23 8 0 42 11 75 24 33 13 53 23 45
23 -8 0 -42 -11 -75 -24z"/>
<path d="M3035 1400 c-24 -5 -7 -6 45 -3 47 3 87 7 89 9 7 7 -92 2 -134 -6z"/>
<path d="M1430 1265 c-23 -9 -28 -14 -15 -14 11 0 34 6 50 14 39 17 11 18 -35
0z"/>
</g>
</svg>
